# xmcd CD database file
#
# Track frame offsets:
#	150
#	10537
#	24047
#	35785
#	48692
#	60625
#	81375
#	92775
#	105835
#	118522
#	129060
#	140145
#	154170
#	165067
#	176712
#	188720
#	204837
#	215265
#	226530
#	238720
#	250490
#
# Disc length: 3466 seconds
#
# Revision: 4
# Processed by: cddbd v1.5.2PL0 Copyright (c) Steve Scherf et al.
# Submitted via: CDex 1.70beta2
#
DISCID=040d8815
DTITLE=The Sons of the Pioneers - Down Memory Trail [CD 4 of 4)
DYEAR=2002
DGENRE=Country
TTITLE0=Listen To The Mocking bird
TTITLE1=Teardrops In My Heart
TTITLE2=Memories
TTITLE3=Crazy Arms
TTITLE4=Blue Eyes Crying In The Rain (With Bob Nolan)
TTITLE5=El Paso
TTITLE6=Bonaparte's Retreat
TTITLE7=I Can't Help It (If I'm Still In Love With You)
TTITLE8=Born To Lose
TTITLE9=Mockin' Bird Hill
TTITLE10=Yours
TTITLE11=Greenfields
TTITLE12=Memories Are Made Of This
TTITLE13=It Happened In Monterey
TTITLE14=My Heart Cries For You
TTITLE15=High Noon
TTITLE16=The Ballad Of Davy Crockett
TTITLE17=Cheyenne
TTITLE18=The Searchers
TTITLE19=Wagon Train
TTITLE20=Maverick
EXTD=SSFLM00883-4\nXCD4-5784 YEAR: 2002
EXTT0=
EXTT1=
EXTT2=
EXTT3=
EXTT4=
EXTT5=
EXTT6=
EXTT7=
EXTT8=
EXTT9=
EXTT10=
EXTT11=
EXTT12=
EXTT13=
EXTT14=
EXTT15=
EXTT16=
EXTT17=
EXTT18=
EXTT19=
EXTT20=
PLAYORDER=
